<?xml version="1.0" standalone="no"?><!-- Generator: Gravit.io --><svg xmlns="http://www.w3.org/2000/svg" xmlns:xlink="http://www.w3.org/1999/xlink" style="isolation:isolate" viewBox="0 0 250 250" width="250" height="250"><defs><clipPath id="_clipPath_8jjo49msVfQLOjGjUnDJKpZJI6Snv1Qp"><rect width="250" height="250"/></clipPath></defs><g clip-path="url(#_clipPath_8jjo49msVfQLOjGjUnDJKpZJI6Snv1Qp)"><rect width="250" height="250" style="fill:rgb(0,0,0)" fill-opacity="0"/><defs><filter id="1jReHuM7y2L4VkoHrbM1JvnIH2iVifGO" x="-200%" y="-200%" width="400%" height="400%" filterUnits="objectBoundingBox" color-interpolation-filters="sRGB"><feOffset xmlns="http://www.w3.org/2000/svg" in="SourceGraphic" dx="0" dy="3"/><feGaussianBlur xmlns="http://www.w3.org/2000/svg" stdDeviation="2.146804531419514" result="pf_100_offsetBlur"/><feComposite xmlns="http://www.w3.org/2000/svg" in="SourceGraphic" in2="pf_100_offsetBlur" result="pf_100_inverse" operator="out"/><feFlood xmlns="http://www.w3.org/2000/svg" flood-color="#FFFFFF" flood-opacity="0.5" result="pf_100_color"/><feComposite xmlns="http://www.w3.org/2000/svg" in="pf_100_color" in2="pf_100_inverse" operator="in" result="pf_100_shadow"/><feComposite xmlns="http://www.w3.org/2000/svg" in="pf_100_shadow" in2="SourceGraphic" operator="over" result="_out_dzn9d0kUSQcZrhwihZkQgBdCorUvCPJv"/><feOffset xmlns="http://www.w3.org/2000/svg" in="_out_dzn9d0kUSQcZrhwihZkQgBdCorUvCPJv" dx="0" dy="-3"/><feGaussianBlur xmlns="http://www.w3.org/2000/svg" stdDeviation="2.146804531419514" result="pf_101_offsetBlur"/><feComposite xmlns="http://www.w3.org/2000/svg" in="_out_dzn9d0kUSQcZrhwihZkQgBdCorUvCPJv" in2="pf_101_offsetBlur" result="pf_101_inverse" operator="out"/><feFlood xmlns="http://www.w3.org/2000/svg" flood-color="#000000" flood-opacity="0.5" result="pf_101_color"/><feComposite xmlns="http://www.w3.org/2000/svg" in="pf_101_color" in2="pf_101_inverse" operator="in" result="pf_101_shadow"/><feComposite xmlns="http://www.w3.org/2000/svg" in="pf_101_shadow" in2="_out_dzn9d0kUSQcZrhwihZkQgBdCorUvCPJv" operator="over" result="_out_FjBMR3yz68EwM3q7kqhnT0foLlgeMoKq"/><feMerge><feMergeNode in="_out_FjBMR3yz68EwM3q7kqhnT0foLlgeMoKq"/></feMerge></filter></defs><g filter="url(#1jReHuM7y2L4VkoHrbM1JvnIH2iVifGO)"><path d="M 15 0 L 235 0 C 243.279 0 250 6.721 250 15 L 250 235 C 250 243.279 243.279 250 235 250 L 15 250 C 6.721 250 0 243.279 0 235 L 0 15 C 0 6.721 6.721 0 15 0 Z" style="stroke:none;fill:#BBACC1;stroke-miterlimit:10;"/></g><g filter="url(#qVkZ0Wuc8XW5w5CP8A6cqssFf3iJy23v)"><path d=" M 92.61 145.54 L 70.49 189.78 L 91.82 182.67 L 98.14 204 L 121.84 156.6 C 122.63 156.6 123.42 156.6 124.21 156.6 C 125 156.6 125.79 156.6 126.58 156.6 L 150.28 204 L 156.6 182.67 L 178.72 189.78 L 156.6 145.54 C 171.61 136.06 78.39 136.06 92.61 145.54 Z " fill="rgb(255,255,255)"/><path d=" M 69.7 101.3 C 69.7 70.459 94.479 45.42 125 45.42 C 155.521 45.42 180.3 70.459 180.3 101.3 C 180.3 132.141 155.521 157.18 125 157.18 C 94.479 157.18 69.7 132.141 69.7 101.3 Z  M 148.54 133 L 124.188 116.766 L 99.837 133 L 108.766 108.649 L 92.532 93.226 L 115.26 93.226 L 125 66.44 L 135.552 93.226 L 157.468 93.226 L 141.234 108.649 L 148.54 133 Z " fill-rule="evenodd" fill="rgb(255,255,255)"/></g><defs><filter id="qVkZ0Wuc8XW5w5CP8A6cqssFf3iJy23v" x="-200%" y="-200%" width="400%" height="400%" filterUnits="objectBoundingBox" color-interpolation-filters="sRGB"><feGaussianBlur xmlns="http://www.w3.org/2000/svg" in="SourceGraphic" stdDeviation="2.146804531419514"/><feOffset xmlns="http://www.w3.org/2000/svg" dx="-5" dy="5" result="pf_100_offsetBlur"/><feFlood xmlns="http://www.w3.org/2000/svg" flood-color="#000000" flood-opacity="0.65"/><feComposite xmlns="http://www.w3.org/2000/svg" in2="pf_100_offsetBlur" operator="in" result="pf_100_dropShadow"/><feBlend xmlns="http://www.w3.org/2000/svg" in="SourceGraphic" in2="pf_100_dropShadow" mode="normal"/></filter></defs></g></svg>